<?xml version="1.0" standalone="no"?>
<!DOCTYPE svg PUBLIC "-//W3C//DTD SVG 20010904//EN"
 "http://www.w3.org/TR/2001/REC-SVG-20010904/DTD/svg10.dtd">
<svg version="1.0" xmlns="http://www.w3.org/2000/svg"
 width="161.000000pt" height="161.000000pt" viewBox="0 0 161.000000 161.000000"
 preserveAspectRatio="xMidYMid meet">
<metadata>
Created by potrace 1.14, written by Peter Selinger 2001-2017
</metadata>
<g transform="translate(0.000000,161.000000) scale(0.100000,-0.100000)"
fill="#000000" stroke="none">
<path d="M785 1420 c-4 -6 -11 -7 -17 -4 -6 4 -8 2 -5 -3 7 -11 -31 -51 -40
-43 -3 3 -11 -3 -17 -12 -15 -24 45 -83 85 -84 15 0 26 3 24 6 -6 9 31 61 38
54 3 -4 -1 -13 -9 -21 -8 -9 -12 -18 -9 -22 4 -3 11 2 16 11 5 9 16 24 24 32
15 15 4 33 -14 22 -5 -3 -14 1 -21 10 -7 8 -19 13 -27 10 -10 -4 -11 -1 -5 12
15 29 -6 59 -23 32z m5 -27 c-20 -14 -20 -16 -3 -28 10 -7 20 -12 23 -10 3 2
6 -8 5 -23 0 -17 -6 -26 -14 -24 -8 2 -11 -3 -8 -11 9 -24 -26 -14 -58 17 -25
23 -27 28 -10 25 11 -2 24 -14 30 -27 5 -12 13 -22 17 -22 14 0 9 27 -7 40
-25 21 -9 23 22 4 l28 -18 -24 27 c-19 21 -27 24 -43 16 -10 -6 -24 -8 -31 -5
-7 3 -6 5 3 5 8 1 29 14 45 29 17 16 34 26 38 24 5 -2 -1 -11 -13 -19z"/>
<path d="M845 1370 c3 -5 8 -10 11 -10 2 0 4 5 4 10 0 6 -5 10 -11 10 -5 0 -7
-4 -4 -10z"/>
<path d="M347 1238 c-4 -12 -3 -25 1 -28 4 -3 7 -24 7 -48 -1 -34 2 -42 14
-40 12 2 15 13 13 42 -3 24 1 42 10 48 9 6 8 8 -7 6 -13 -2 -20 4 -23 17 -2
14 -1 16 6 7 6 -9 27 -12 63 -10 65 4 72 22 9 25 -43 1 -44 1 -10 -7 l35 -7
-37 -2 c-21 0 -38 4 -38 9 0 20 -38 10 -43 -12z"/>
<path d="M1100 1245 c0 -8 3 -15 8 -15 4 0 6 -24 4 -52 l-4 -53 35 0 c27 0 33
3 25 13 -6 6 -19 12 -29 12 -14 0 -19 7 -19 29 0 23 6 31 29 39 39 14 61 -7
30 -26 -17 -11 -18 -16 -9 -28 7 -8 21 -14 31 -14 11 0 19 -7 19 -15 0 -8 3
-15 8 -15 11 0 1 94 -12 102 -7 5 -5 8 7 8 9 0 17 3 17 8 0 4 -30 6 -67 5 -48
-1 -61 0 -43 7 l25 8 -27 1 c-19 1 -28 -4 -28 -14z"/>
<path d="M1188 1253 c6 -2 18 -2 25 0 6 3 1 5 -13 5 -14 0 -19 -2 -12 -5z"/>
<path d="M412 1208 c-7 -7 -12 -29 -12 -50 0 -31 4 -38 20 -38 15 0 20 7 20
26 0 21 4 25 20 21 15 -4 20 0 20 15 0 11 -5 18 -12 15 -7 -2 -20 2 -29 9 -12
11 -18 11 -27 2z"/>
<path d="M773 1135 c-27 -40 -31 -106 -8 -125 9 -8 15 -9 15 -2 0 6 -4 14 -10
17 -15 9 -12 52 6 87 l16 32 13 -25 c13 -24 18 -50 16 -81 -1 -21 -21 -24 -21
-4 0 8 -3 17 -7 19 -15 9 -2 -187 13 -211 12 -17 13 -42 8 -111 -8 -104 0
-161 23 -161 11 0 14 6 10 23 -14 55 -17 108 -10 182 7 72 10 80 30 83 14 2
32 -7 50 -27 26 -28 51 -36 105 -32 21 1 13 33 -14 58 -15 13 -34 17 -74 16
-59 -3 -66 5 -32 37 24 22 34 25 43 10 16 -26 141 11 152 46 2 6 -16 17 -39
23 -51 14 -81 6 -125 -36 -56 -53 -112 -93 -117 -85 -8 14 43 82 62 82 21 0
66 56 58 73 -2 7 -5 6 -5 -4 -1 -8 -12 -26 -26 -39 -28 -26 -34 -17 -8 12 9
10 11 18 6 18 -6 0 -18 -10 -26 -22 -16 -22 -16 -22 -16 -2 -1 25 59 85 66 67
8 -21 22 -14 16 7 -3 12 -8 19 -12 18 -3 -2 -18 -10 -32 -17 -29 -14 -49 -49
-49 -84 0 -12 -11 -35 -25 -52 l-24 -30 -1 44 c0 27 6 51 16 62 27 30 28 89 2
131 l-23 37 -22 -34z m290 -163 c5 -2 1 -13 -9 -23 -12 -13 -31 -19 -61 -19
-54 0 -49 19 5 21 l37 2 -40 6 -40 7 35 11 c32 9 50 8 73 -5z m-60 -130 c10
-10 14 -22 10 -25 -13 -14 -60 -6 -77 12 -17 18 -17 19 1 24 36 9 50 7 66 -11z"/>
<path d="M865 1111 c-3 -5 -1 -12 5 -16 5 -3 10 1 10 9 0 18 -6 21 -15 7z"/>
<path d="M620 1083 c0 -20 44 -93 55 -93 9 0 5 9 -10 25 -44 43 -26 73 24 39
16 -12 21 -22 17 -40 -3 -12 -1 -26 5 -30 14 -8 53 -94 46 -100 -7 -7 -73 40
-106 75 -15 16 -40 33 -55 37 -27 7 -112 -12 -122 -27 -2 -5 14 -22 37 -39 44
-32 93 -39 130 -19 16 8 27 6 47 -7 75 -47 92 -90 22 -54 -22 11 -55 20 -75
20 -60 0 -111 -48 -69 -64 32 -12 92 -6 115 13 18 15 28 16 46 8 12 -5 24 -16
27 -23 8 -20 -10 -167 -23 -191 -15 -29 -14 -43 4 -43 8 0 17 12 20 28 4 15 8
37 11 50 2 12 5 75 5 139 0 106 -2 121 -25 166 -14 27 -26 58 -26 68 0 28 -44
69 -75 69 -14 0 -25 -3 -25 -7z m1 -113 l24 -20 -55 5 -55 4 44 -9 c55 -12 71
-26 41 -35 -26 -8 -63 0 -96 22 -37 24 -12 46 57 52 9 0 27 -8 40 -19z m22
-121 c-18 -5 -33 -12 -33 -14 0 -2 15 -2 33 2 29 6 31 5 18 -10 -14 -18 -57
-22 -79 -8 -23 14 14 41 56 40 l37 -1 -32 -9z"/>
<path d="M580 1041 c0 -6 5 -13 10 -16 6 -3 10 1 10 9 0 9 -4 16 -10 16 -5 0
-10 -4 -10 -9z"/>
<path d="M995 1030 c3 -5 8 -10 11 -10 2 0 4 5 4 10 0 6 -5 10 -11 10 -5 0 -7
-4 -4 -10z"/>
<path d="M250 895 c-7 -8 -9 -15 -4 -16 5 0 -2 -5 -15 -10 -17 -7 -21 -14 -16
-27 4 -9 9 -24 12 -32 4 -13 4 -13 -6 0 -5 8 -13 11 -18 7 -4 -5 -2 -11 4 -15
6 -4 11 -16 10 -27 -1 -11 5 -21 16 -23 9 -2 17 2 17 8 0 6 -4 9 -9 5 -5 -3
-13 0 -17 6 -4 8 -3 9 4 5 8 -5 10 -2 6 8 -9 23 3 19 16 -5 8 -14 8 -24 1 -33
-8 -10 -7 -17 6 -27 15 -12 16 -12 10 3 -3 10 -2 20 4 24 5 3 7 15 3 27 -6 20
-5 20 10 8 15 -13 15 -15 0 -32 -29 -32 -6 -21 31 15 39 38 42 50 20 72 -16
17 -18 13 -17 -39 1 -24 -2 -26 -14 -16 -11 9 -12 15 -3 25 9 11 8 14 -1 14
-10 0 -10 3 0 16 11 13 10 18 -8 35 -12 10 -20 16 -17 13 2 -4 -3 -13 -11 -22
-10 -10 -13 -24 -9 -40 5 -22 4 -24 -9 -13 -9 7 -13 17 -10 22 3 5 0 9 -6 9
-6 0 -8 5 -5 10 4 6 10 8 15 5 4 -3 13 9 19 25 11 34 9 37 -9 15z m44 -34 c3
-5 -1 -14 -8 -20 -12 -10 -13 -8 -9 8 6 23 9 25 17 12z m40 -61 c-6 -6 -10 -3
-10 10 0 13 4 16 10 10 7 -7 7 -13 0 -20z"/>
<path d="M1284 869 c-28 -31 -28 -31 -3 -15 24 15 27 15 32 1 7 -17 37 -21 37
-4 0 5 6 7 13 3 6 -4 4 2 -6 14 -11 12 -25 18 -35 15 -10 -4 -13 -2 -8 5 13
21 1 13 -30 -19z"/>
<path d="M187 833 c-10 -9 -9 -41 1 -47 5 -3 9 8 9 24 0 33 -1 33 -10 23z"/>
<path d="M1322 829 c-18 -4 -41 -5 -51 -2 -10 2 -23 -2 -29 -10 -10 -11 -9
-17 4 -28 19 -16 44 -21 44 -8 0 5 -4 10 -10 10 -5 1 -14 2 -20 3 -5 0 -10 4
-10 9 0 4 0 9 0 12 0 2 12 0 27 -6 19 -7 28 -7 34 2 6 10 11 10 23 0 9 -8 16
-18 16 -23 0 -6 -6 -5 -15 2 -14 12 -35 6 -35 -10 0 -5 8 -7 18 -3 14 5 15 3
5 -8 -15 -16 -17 -45 -3 -54 6 -3 7 1 4 10 -4 11 5 27 26 48 26 25 30 27 21
10 -6 -13 -16 -23 -21 -23 -6 0 -10 -7 -10 -16 0 -10 10 -6 33 16 27 26 30 32
17 41 -11 8 -12 12 -2 16 6 2 12 8 12 12 0 9 -35 9 -78 0z m52 -14 c-7 -17
-20 -20 -29 -6 -3 5 3 12 12 14 10 3 19 5 20 6 1 0 0 -6 -3 -14z"/>
<path d="M587 758 c4 -22 4 -23 -11 -4 -16 20 -16 20 -16 0 0 -11 -5 -25 -12
-32 -7 -7 -10 -35 -9 -68 2 -56 2 -56 -23 -50 -20 5 -24 3 -20 -9 5 -13 23
-15 97 -13 52 2 92 7 94 14 2 6 -10 8 -32 6 -35 -4 -35 -4 -35 36 0 27 5 42
16 46 22 9 24 8 18 -9 -4 -8 -1 -15 5 -15 6 0 11 15 11 34 0 19 3 41 6 50 4
11 1 16 -11 16 -12 0 -15 -5 -10 -21 5 -13 2 -25 -6 -30 -20 -12 -49 9 -49 36
0 13 -4 26 -9 29 -5 4 -7 -4 -4 -16z m19 -107 c-2 -41 -5 -46 -27 -46 -29 0
-37 26 -14 49 15 14 15 17 1 22 -19 7 -21 25 -4 42 9 9 16 8 29 -4 13 -12 17
-28 15 -63z"/>
<path d="M934 753 c-12 -36 -29 -68 -44 -80 -13 -11 -12 -12 6 -13 17 0 20 -5
16 -25 -2 -14 -8 -28 -13 -31 -5 -3 -9 -8 -9 -12 0 -9 186 -9 196 1 4 4 -16 7
-44 7 -39 0 -52 4 -52 15 0 8 8 19 19 24 24 13 17 61 -9 61 -18 0 -32 21 -34
49 -2 22 -25 25 -32 4z m30 -48 c3 -8 0 -15 -6 -15 -10 0 -7 -36 8 -73 6 -16
3 -18 -17 -15 -21 3 -24 9 -25 43 -1 22 1 48 3 58 5 21 29 23 37 2z m42 -50
c-7 -19 -37 -16 -44 4 -3 10 0 12 12 8 11 -4 16 -1 16 10 0 13 3 14 11 6 7 -7
9 -19 5 -28z"/>
<path d="M1285 750 c3 -5 8 -10 11 -10 2 0 4 5 4 10 0 6 -5 10 -11 10 -5 0 -7
-4 -4 -10z"/>
<path d="M525 550 c3 -5 19 -10 35 -10 17 0 40 -11 60 -30 80 -75 274 -70 344
9 12 13 31 21 53 21 18 0 33 5 33 10 0 19 -76 11 -95 -10 -77 -85 -243 -92
-319 -14 -27 28 -40 34 -75 34 -26 0 -40 -4 -36 -10z"/>
<path d="M660 551 c0 -16 85 -51 123 -51 41 0 147 37 147 51 0 13 -8 12 -69
-12 -60 -23 -140 -19 -162 7 -13 16 -39 19 -39 5z"/>
<path d="M355 458 c0 -24 -3 -45 -7 -48 -14 -11 4 -50 23 -50 11 0 19 5 19 10
0 6 17 9 38 9 l37 -2 -35 -7 -35 -7 41 -2 c30 -1 41 3 41 14 0 19 -102 22
-111 3 -3 -7 -4 -4 -3 7 2 14 9 19 22 17 15 -2 16 0 7 6 -9 6 -13 24 -10 48 2
29 -1 40 -13 42 -12 2 -15 -6 -14 -40z"/>
<path d="M406 493 c-11 -12 -6 -71 8 -82 10 -9 16 -8 25 3 7 8 19 12 27 9 9
-3 14 2 14 15 0 15 -5 19 -20 15 -15 -4 -20 0 -20 15 0 20 -23 36 -34 25z"/>
<path d="M1148 493 c-16 -2 -28 -9 -28 -14 0 -15 36 -10 50 6 7 8 11 14 9 14
-2 -1 -16 -4 -31 -6z"/>
<path d="M1220 485 c0 -8 -8 -15 -19 -15 -10 0 -24 -6 -30 -14 -9 -11 -8 -17
9 -29 19 -13 19 -15 3 -28 -11 -9 -14 -10 -9 -1 5 8 -2 12 -23 12 -26 0 -31 4
-31 25 0 14 -4 25 -10 25 -14 0 -13 -47 1 -56 8 -4 7 -9 -2 -14 -7 -5 19 -10
59 -12 40 -1 72 0 72 5 0 4 -8 7 -17 7 -12 0 -14 3 -7 8 13 8 23 102 12 102
-5 0 -8 -7 -8 -15z"/>
<path d="M790 356 c0 -11 5 -15 13 -10 10 6 10 4 0 -7 -16 -17 -17 -30 -1 -26
7 1 13 -9 13 -25 1 -15 -2 -26 -5 -25 -3 1 -15 -4 -27 -11 -17 -9 -27 -9 -50
3 -15 8 -22 15 -15 15 7 0 21 -4 31 -10 14 -7 24 -4 41 15 26 28 17 34 -12 8
-10 -9 -18 -11 -18 -5 0 6 5 14 10 17 12 7 14 35 2 35 -4 0 -12 -10 -17 -22
-6 -12 -18 -23 -28 -24 -9 -1 -15 2 -11 7 3 5 11 9 18 9 8 0 16 10 19 21 4 16
11 20 24 15 14 -6 15 -5 6 5 -20 20 -92 -55 -77 -79 6 -9 14 -15 17 -12 9 8
47 -32 40 -43 -3 -5 -1 -7 5 -3 6 3 12 -1 14 -11 2 -14 8 -12 33 10 17 15 23
25 14 21 -10 -3 -19 1 -22 10 -4 10 -1 13 7 10 7 -3 18 2 25 10 7 8 18 13 26
10 24 -9 23 10 -1 36 -13 13 -24 19 -24 12 0 -6 5 -12 11 -12 5 0 7 -5 3 -11
-4 -7 -13 0 -25 17 -10 15 -16 31 -14 35 3 4 -2 12 -10 19 -12 10 -15 9 -15
-4z m6 -130 c16 -17 18 -26 4 -26 -5 0 -14 9 -20 20 -12 23 -5 26 16 6z"/>
<path d="M1118 363 c7 -3 16 -2 19 1 4 3 -2 6 -13 5 -11 0 -14 -3 -6 -6z"/>
<path d="M1188 363 c6 -2 18 -2 25 0 6 3 1 5 -13 5 -14 0 -19 -2 -12 -5z"/>
<path d="M845 250 c-3 -5 -1 -10 4 -10 6 0 11 5 11 10 0 6 -2 10 -4 10 -3 0
-8 -4 -11 -10z"/>
</g>
</svg>
